<?xml version="1.0" encoding="UTF-8"?>
<svg xmlns="http://www.w3.org/2000/svg" xmlns:xlink="http://www.w3.org/1999/xlink" width="50px" height="50px" viewBox="0 0 50 50" version="1.1">
<g id="surface1">
<path style=" stroke:none;fill-rule:evenodd;fill:rgb(0%,0%,0%);fill-opacity:1;" d="M 25.003906 0 L 0.730469 24.273438 L 2.785156 26.328125 L 25.003906 4.109375 L 47.222656 26.328125 L 49.277344 24.273438 Z M 40.984375 26.753906 L 40.984375 47.09375 L 32.265625 47.09375 L 32.265625 32.566406 L 17.738281 32.566406 L 17.738281 47.09375 L 9.023438 47.09375 L 9.023438 26.753906 L 6.113281 26.753906 L 6.113281 50 L 43.890625 50 L 43.890625 26.753906 Z M 29.363281 35.472656 L 29.363281 47.097656 L 20.644531 47.097656 L 20.644531 35.472656 Z M 25.003906 18.035156 C 26.605469 18.035156 27.910156 19.339844 27.910156 20.941406 C 27.910156 22.546875 26.605469 23.847656 25.003906 23.847656 C 23.398438 23.847656 22.097656 22.546875 22.097656 20.941406 C 22.097656 19.339844 23.398438 18.035156 25.003906 18.035156 Z M 30.816406 20.941406 C 30.816406 17.738281 28.207031 15.128906 25.003906 15.128906 C 21.796875 15.128906 19.191406 17.738281 19.191406 20.941406 C 19.191406 24.148438 21.796875 26.753906 25.003906 26.753906 C 28.207031 26.753906 30.816406 24.148438 30.816406 20.941406 "/>
</g>
</svg>
