<?xml version="1.0" encoding="UTF-8"?>
<svg xmlns="http://www.w3.org/2000/svg" xmlns:xlink="http://www.w3.org/1999/xlink" width="50px" height="50px" viewBox="0 0 50 50" version="1.1">
<g id="surface1">
<path style=" stroke:none;fill-rule:nonzero;fill:rgb(0%,0%,0%);fill-opacity:1;" d="M 44.167969 27.15625 L 14.835938 27.15625 C 11.617188 27.15625 9.003906 29.769531 9.003906 32.984375 C 9.003906 36.199219 11.617188 38.816406 14.835938 38.816406 L 44.167969 38.816406 C 47.382812 38.816406 50 36.199219 50 32.984375 C 50 29.769531 47.382812 27.15625 44.167969 27.15625 Z M 44.167969 37.203125 L 14.835938 37.203125 C 12.507812 37.203125 10.617188 35.3125 10.617188 32.984375 C 10.617188 30.660156 12.507812 28.769531 14.835938 28.769531 L 44.167969 28.769531 C 46.496094 28.769531 48.386719 30.660156 48.386719 32.984375 C 48.386719 35.3125 46.496094 37.203125 44.167969 37.203125 Z M 44.167969 37.203125 "/>
<path style=" stroke:none;fill-rule:nonzero;fill:rgb(0%,0%,0%);fill-opacity:1;" d="M 18.925781 31.445312 C 18.703125 31.058594 18.210938 30.929688 17.824219 31.152344 L 16.960938 31.648438 L 16.960938 30.652344 C 16.960938 30.207031 16.601562 29.847656 16.15625 29.847656 C 15.710938 29.847656 15.347656 30.207031 15.347656 30.652344 L 15.347656 31.648438 L 14.484375 31.152344 C 14.097656 30.929688 13.605469 31.058594 13.382812 31.445312 C 13.160156 31.832031 13.292969 32.324219 13.679688 32.546875 L 14.542969 33.046875 L 13.679688 33.542969 C 13.292969 33.765625 13.160156 34.261719 13.382812 34.644531 C 13.53125 34.90625 13.804688 35.050781 14.082031 35.050781 C 14.21875 35.050781 14.359375 35.015625 14.484375 34.941406 L 15.347656 34.445312 L 15.347656 35.441406 C 15.347656 35.886719 15.710938 36.246094 16.15625 36.246094 C 16.601562 36.246094 16.960938 35.886719 16.960938 35.441406 L 16.960938 34.445312 L 17.824219 34.941406 C 17.953125 35.015625 18.089844 35.050781 18.226562 35.050781 C 18.503906 35.050781 18.777344 34.90625 18.925781 34.644531 C 19.148438 34.261719 19.015625 33.765625 18.632812 33.542969 L 17.769531 33.046875 L 18.632812 32.546875 C 19.015625 32.324219 19.148438 31.832031 18.925781 31.445312 Z M 18.925781 31.445312 "/>
<path style=" stroke:none;fill-rule:nonzero;fill:rgb(0%,0%,0%);fill-opacity:1;" d="M 26.429688 31.445312 C 26.207031 31.058594 25.714844 30.929688 25.328125 31.152344 L 24.464844 31.648438 L 24.464844 30.652344 C 24.464844 30.207031 24.105469 29.847656 23.660156 29.847656 C 23.214844 29.847656 22.851562 30.207031 22.851562 30.652344 L 22.851562 31.648438 L 21.988281 31.152344 C 21.601562 30.929688 21.109375 31.058594 20.886719 31.445312 C 20.664062 31.832031 20.796875 32.324219 21.183594 32.546875 L 22.046875 33.046875 L 21.183594 33.542969 C 20.796875 33.765625 20.664062 34.261719 20.886719 34.644531 C 21.035156 34.90625 21.308594 35.050781 21.585938 35.050781 C 21.722656 35.050781 21.863281 35.015625 21.988281 34.941406 L 22.851562 34.441406 L 22.851562 35.4375 C 22.851562 35.886719 23.214844 36.246094 23.660156 36.246094 C 24.105469 36.246094 24.464844 35.886719 24.464844 35.4375 L 24.464844 34.441406 L 25.328125 34.941406 C 25.457031 35.015625 25.59375 35.050781 25.730469 35.050781 C 26.007812 35.050781 26.28125 34.90625 26.429688 34.644531 C 26.652344 34.261719 26.519531 33.765625 26.132812 33.542969 L 25.273438 33.046875 L 26.132812 32.546875 C 26.519531 32.324219 26.652344 31.832031 26.429688 31.445312 Z M 26.429688 31.445312 "/>
<path style=" stroke:none;fill-rule:nonzero;fill:rgb(0%,0%,0%);fill-opacity:1;" d="M 33.933594 31.445312 C 33.710938 31.058594 33.21875 30.929688 32.832031 31.152344 L 31.96875 31.648438 L 31.96875 30.652344 C 31.96875 30.207031 31.609375 29.847656 31.164062 29.847656 C 30.714844 29.847656 30.355469 30.207031 30.355469 30.652344 L 30.355469 31.648438 L 29.492188 31.152344 C 29.105469 30.929688 28.613281 31.058594 28.390625 31.445312 C 28.167969 31.832031 28.300781 32.324219 28.6875 32.546875 L 29.550781 33.046875 L 28.6875 33.542969 C 28.300781 33.765625 28.167969 34.261719 28.390625 34.644531 C 28.539062 34.90625 28.8125 35.050781 29.089844 35.050781 C 29.226562 35.050781 29.367188 35.015625 29.492188 34.941406 L 30.355469 34.441406 L 30.355469 35.4375 C 30.355469 35.886719 30.714844 36.246094 31.164062 36.246094 C 31.609375 36.246094 31.96875 35.886719 31.96875 35.4375 L 31.96875 34.441406 L 32.832031 34.941406 C 32.957031 35.015625 33.097656 35.050781 33.234375 35.050781 C 33.511719 35.050781 33.785156 34.90625 33.933594 34.644531 C 34.15625 34.261719 34.023438 33.765625 33.636719 33.542969 L 32.777344 33.046875 L 33.636719 32.546875 C 34.023438 32.324219 34.15625 31.832031 33.933594 31.445312 Z M 33.933594 31.445312 "/>
<path style=" stroke:none;fill-rule:nonzero;fill:rgb(0%,0%,0%);fill-opacity:1;" d="M 41.4375 31.445312 C 41.214844 31.058594 40.722656 30.929688 40.335938 31.152344 L 39.472656 31.648438 L 39.472656 30.652344 C 39.472656 30.207031 39.113281 29.847656 38.664062 29.847656 C 38.21875 29.847656 37.859375 30.207031 37.859375 30.652344 L 37.859375 31.648438 L 36.996094 31.152344 C 36.609375 30.929688 36.117188 31.0625 35.894531 31.445312 C 35.671875 31.832031 35.804688 32.324219 36.191406 32.546875 L 37.050781 33.046875 L 36.191406 33.542969 C 35.804688 33.765625 35.671875 34.261719 35.894531 34.644531 C 36.042969 34.90625 36.316406 35.050781 36.59375 35.050781 C 36.730469 35.050781 36.871094 35.015625 36.996094 34.941406 L 37.859375 34.445312 L 37.859375 35.441406 C 37.859375 35.886719 38.21875 36.246094 38.664062 36.246094 C 39.113281 36.246094 39.472656 35.886719 39.472656 35.441406 L 39.472656 34.445312 L 40.335938 34.941406 C 40.460938 35.015625 40.601562 35.050781 40.738281 35.050781 C 41.015625 35.050781 41.289062 34.90625 41.4375 34.648438 C 41.660156 34.261719 41.527344 33.765625 41.140625 33.542969 L 40.277344 33.046875 L 41.140625 32.546875 C 41.527344 32.324219 41.660156 31.832031 41.4375 31.445312 Z M 41.4375 31.445312 "/>
<path style=" stroke:none;fill-rule:nonzero;fill:rgb(0%,0%,0%);fill-opacity:1;" d="M 6.300781 31.453125 L 6.269531 31.453125 L 6.269531 30.773438 C 6.269531 29.289062 5.0625 28.085938 3.582031 28.085938 C 2.101562 28.085938 0.894531 29.289062 0.894531 30.773438 L 0.894531 31.453125 L 0.863281 31.453125 C 0.417969 31.453125 0.0546875 31.8125 0.0546875 32.257812 L 0.0546875 37.078125 C 0.0546875 37.523438 0.417969 37.886719 0.863281 37.886719 L 6.300781 37.886719 C 6.746094 37.886719 7.105469 37.523438 7.105469 37.078125 L 7.105469 32.257812 C 7.105469 31.8125 6.746094 31.453125 6.300781 31.453125 Z M 2.507812 30.773438 C 2.507812 30.179688 2.988281 29.699219 3.582031 29.699219 C 4.171875 29.699219 4.65625 30.179688 4.65625 30.773438 L 4.65625 31.453125 L 2.507812 31.453125 Z M 5.492188 36.273438 L 1.667969 36.273438 L 1.667969 33.066406 L 5.492188 33.066406 Z M 5.492188 36.273438 "/>
<path style=" stroke:none;fill-rule:nonzero;fill:rgb(0%,0%,0%);fill-opacity:1;" d="M 14.835938 22.84375 L 44.167969 22.84375 C 47.382812 22.84375 50 20.230469 50 17.015625 C 50 13.800781 47.382812 11.183594 44.167969 11.183594 L 14.835938 11.183594 C 11.617188 11.183594 9.003906 13.800781 9.003906 17.015625 C 9.003906 20.230469 11.617188 22.84375 14.835938 22.84375 Z M 14.835938 12.796875 L 44.167969 12.796875 C 46.496094 12.796875 48.386719 14.6875 48.386719 17.015625 C 48.386719 19.339844 46.496094 21.230469 44.167969 21.230469 L 14.835938 21.230469 C 12.507812 21.230469 10.617188 19.339844 10.617188 17.015625 C 10.617188 14.6875 12.507812 12.796875 14.835938 12.796875 Z M 14.835938 12.796875 "/>
<path style=" stroke:none;fill-rule:nonzero;fill:rgb(0%,0%,0%);fill-opacity:1;" d="M 0.808594 21.183594 L 6.246094 21.183594 C 6.691406 21.183594 7.050781 20.820312 7.050781 20.375 L 7.050781 20.035156 C 7.050781 18.84375 6.457031 17.792969 5.550781 17.152344 C 5.933594 16.695312 6.164062 16.105469 6.164062 15.464844 C 6.164062 14.007812 4.980469 12.824219 3.527344 12.824219 C 2.070312 12.824219 0.886719 14.007812 0.886719 15.464844 C 0.886719 16.105469 1.117188 16.695312 1.5 17.152344 C 0.59375 17.792969 0 18.84375 0 20.035156 L 0 20.375 C 0 20.820312 0.359375 21.183594 0.808594 21.183594 Z M 3.527344 14.4375 C 4.089844 14.4375 4.550781 14.898438 4.550781 15.464844 C 4.550781 16.027344 4.089844 16.488281 3.527344 16.488281 C 2.960938 16.488281 2.5 16.027344 2.5 15.464844 C 2.5 14.898438 2.960938 14.4375 3.527344 14.4375 Z M 3.527344 18.125 C 4.417969 18.125 5.171875 18.738281 5.378906 19.570312 L 1.671875 19.570312 C 1.878906 18.738281 2.632812 18.125 3.527344 18.125 Z M 3.527344 18.125 "/>
<path style=" stroke:none;fill-rule:nonzero;fill:rgb(0%,0%,0%);fill-opacity:1;" d="M 15.183594 19.328125 L 17.550781 19.328125 C 17.996094 19.328125 18.355469 18.96875 18.355469 18.523438 C 18.355469 18.078125 17.996094 17.714844 17.550781 17.714844 L 15.988281 17.714844 L 15.988281 15.1875 C 15.988281 14.742188 15.628906 14.382812 15.183594 14.382812 C 14.738281 14.382812 14.375 14.742188 14.375 15.1875 L 14.375 18.523438 C 14.375 18.96875 14.738281 19.328125 15.183594 19.328125 Z M 15.183594 19.328125 "/>
<path style=" stroke:none;fill-rule:nonzero;fill:rgb(0%,0%,0%);fill-opacity:1;" d="M 31.167969 19.328125 C 31.613281 19.328125 31.972656 18.96875 31.972656 18.523438 L 31.972656 15.1875 C 31.972656 14.742188 31.613281 14.382812 31.167969 14.382812 C 30.71875 14.382812 30.359375 14.742188 30.359375 15.1875 L 30.359375 18.523438 C 30.359375 18.96875 30.71875 19.328125 31.167969 19.328125 Z M 31.167969 19.328125 "/>
<path style=" stroke:none;fill-rule:nonzero;fill:rgb(0%,0%,0%);fill-opacity:1;" d="M 34.070312 19.328125 C 34.515625 19.328125 34.878906 18.96875 34.878906 18.523438 L 34.878906 17.179688 L 36.71875 19.082031 C 36.871094 19.242188 37.082031 19.328125 37.296875 19.328125 C 37.398438 19.328125 37.5 19.308594 37.601562 19.269531 C 37.902344 19.144531 38.105469 18.851562 38.105469 18.523438 L 38.105469 15.1875 C 38.105469 14.742188 37.742188 14.382812 37.296875 14.382812 C 36.851562 14.382812 36.492188 14.742188 36.492188 15.1875 L 36.492188 16.527344 L 34.648438 14.625 C 34.421875 14.390625 34.074219 14.316406 33.769531 14.441406 C 33.464844 14.5625 33.265625 14.859375 33.265625 15.1875 L 33.265625 18.523438 C 33.261719 18.96875 33.625 19.328125 34.070312 19.328125 Z M 34.070312 19.328125 "/>
<path style=" stroke:none;fill-rule:nonzero;fill:rgb(0%,0%,0%);fill-opacity:1;" d="M 21.480469 19.328125 C 22.847656 19.328125 23.957031 18.21875 23.957031 16.855469 C 23.957031 15.492188 22.847656 14.382812 21.480469 14.382812 C 20.117188 14.382812 19.007812 15.492188 19.007812 16.855469 C 19.007812 18.21875 20.117188 19.328125 21.480469 19.328125 Z M 21.480469 15.996094 C 21.957031 15.996094 22.34375 16.378906 22.34375 16.855469 C 22.34375 17.328125 21.957031 17.714844 21.480469 17.714844 C 21.007812 17.714844 20.621094 17.328125 20.621094 16.855469 C 20.621094 16.378906 21.007812 15.996094 21.480469 15.996094 Z M 21.480469 15.996094 "/>
<path style=" stroke:none;fill-rule:nonzero;fill:rgb(0%,0%,0%);fill-opacity:1;" d="M 27.570312 19.300781 L 27.570312 19.703125 C 27.570312 20.152344 27.933594 20.511719 28.378906 20.511719 C 28.824219 20.511719 29.183594 20.152344 29.183594 19.703125 L 29.183594 18.035156 C 29.183594 17.707031 28.988281 17.414062 28.6875 17.289062 C 28.382812 17.164062 28.039062 17.234375 27.808594 17.464844 C 27.472656 17.796875 26.925781 17.796875 26.589844 17.464844 C 26.253906 17.128906 26.253906 16.582031 26.589844 16.246094 C 26.925781 15.910156 27.472656 15.910156 27.808594 16.246094 C 28.121094 16.5625 28.632812 16.5625 28.949219 16.246094 C 29.261719 15.929688 29.261719 15.421875 28.949219 15.105469 C 27.984375 14.140625 26.414062 14.140625 25.449219 15.105469 C 24.484375 16.070312 24.484375 17.640625 25.449219 18.605469 C 26.027344 19.179688 26.820312 19.414062 27.570312 19.300781 Z M 27.570312 19.300781 "/>
</g>
</svg>
